# xmcd
#
# Track frame offsets:
#	150
#	13503
#	30726
#	48729
#	65681
#	82498
#	97178
#	113982
#	127537
#	136014
#	150890
#	166875
#	182640
#	196195
#	213808
#	235635
#	251447
#	265467
#	279142
#	290389
#
# Disc length: 4134 seconds
#
# Revision: 1
# Processed by: cddbd v1.4PL0 Copyright (c) Steve Scherf et al.
# Submitted via: CDmax 2.0
#
DISCID=0d102414
DTITLE=Lance Bedwell - Dungaree Man
DYEAR=2004
DGENRE=Country
TTITLE0=Baby Boomer-Rang
TTITLE1=Dance the night away
TTITLE2=Enough T'Kill Ya!
TTITLE3=If you could read my mind
TTITLE4=Night Hawk
TTITLE5=Jack of all trades
TTITLE6=This old guitar
TTITLE7=For I am dreaming
TTITLE8=Great balls of fire
TTITLE9=Temptation
TTITLE10=You've got it
TTITLE11=Took a shot in the dark
TTITLE12=Steel Rail Blues
TTITLE13=Bend before I break
TTITLE14=That's just the way it is
TTITLE15=Blessed be the children
TTITLE16=Song for a winter's night
TTITLE17=I do it for money
TTITLE18=Sixteen tons
TTITLE19=Dungaree man
EXTD=
EXTT0=
EXTT1=
EXTT2=
EXTT3=
EXTT4=
EXTT5=
EXTT6=
EXTT7=
EXTT8=
EXTT9=
EXTT10=
EXTT11=
EXTT12=
EXTT13=
EXTT14=
EXTT15=
EXTT16=
EXTT17=
EXTT18=
EXTT19=
PLAYORDER=
